<svg version="1.1" id="Layer_1" xmlns="http://www.w3.org/2000/svg" xmlns:xlink="http://www.w3.org/1999/xlink" x="0px" y="0px"
	 width="100%" viewBox="0 0 700 680" enable-background="new 0 0 700 680" xml:space="preserve">
<path fill="#312823" opacity="1.000000" stroke="none" 
	d="
M460.512543,628.539551 
	C417.211334,645.116882 372.700836,651.986145 326.920624,648.684875 
	C245.235184,642.794434 175.742447,610.132690 119.319397,550.756104 
	C72.727440,501.725159 45.129337,443.193756 36.226570,376.172516 
	C14.512140,212.703415 124.256203,59.480911 285.827087,27.220003 
	C452.280273,-6.015755 614.763855,97.959579 653.541016,263.883453 
	C690.114868,420.379883 604.065674,572.935425 460.512543,628.539551 
M397.944427,163.496719 
	C392.142944,163.399353 386.319000,163.590912 380.544830,163.142181 
	C369.781403,162.305756 359.061737,160.749557 348.289856,160.289993 
	C345.633392,160.176666 341.732727,162.481705 340.377136,164.819244 
	C338.282837,168.430649 340.893768,171.799774 344.146667,174.040695 
	C348.393219,176.966156 352.700409,179.808197 357.050720,182.577332 
	C363.078735,186.414337 366.133575,191.676804 365.261139,198.943466 
	C363.080078,217.108582 361.423859,235.357208 358.550415,253.412125 
	C356.307983,267.502167 351.919067,281.140717 344.993439,295.081085 
	C342.198975,291.915924 339.337524,289.557159 337.589355,286.550995 
	C326.642975,267.727478 315.188965,249.139984 305.413422,229.714264 
	C298.117188,215.215408 292.848358,199.663895 287.169312,184.397888 
	C284.501740,177.227005 279.710663,174.714966 272.628967,175.111130 
	C270.966064,175.204163 269.297913,175.205536 267.635284,175.302414 
	C252.037308,176.211273 236.428604,176.977295 220.848343,178.127762 
	C214.923447,178.565262 208.888184,179.299301 203.222900,180.977417 
	C197.069382,182.800125 195.559143,188.523346 199.431976,193.645645 
	C201.515976,196.402008 204.072571,198.975906 206.883820,200.973709 
	C214.337769,206.270844 216.751251,213.160812 214.543610,221.883118 
	C214.299713,222.846741 214.215103,223.853195 214.090210,224.844025 
	C209.489578,261.341125 204.807266,297.828369 200.386078,334.347198 
	C199.705032,339.972626 197.107819,343.947906 192.891983,347.265564 
	C189.885681,349.631409 186.644104,351.779053 183.996979,354.500183 
	C180.668762,357.921478 179.348373,362.288635 181.123932,366.937744 
	C182.947571,371.712799 187.257492,372.633667 191.761002,372.858185 
	C193.083481,372.924103 194.487549,372.970734 195.737900,372.616089 
	C208.412857,369.021057 221.228119,368.514496 234.293335,369.970428 
	C239.235413,370.521179 245.233688,371.165527 247.523315,364.811829 
	C249.725693,358.700226 244.790283,355.627594 240.897598,352.700531 
	C235.474777,348.622925 232.256119,343.415497 231.695511,336.803467 
	C231.248489,331.531189 230.916046,326.125580 231.563675,320.907135 
	C233.549393,304.906464 236.058182,288.971222 238.310425,273.003021 
	C239.702209,263.135498 240.326630,253.107178 245.282547,244.084030 
	C247.237762,240.524170 249.363190,239.908890 252.040375,243.218719 
	C257.373901,249.812637 263.467255,255.954285 267.821747,263.145599 
	C278.416595,280.642792 288.213409,298.623779 298.300507,316.427551 
	C307.522888,332.705139 317.596893,348.339508 331.038666,361.583344 
	C332.180328,362.708160 332.589325,365.432251 332.185028,367.140320 
	C327.145020,388.432800 325.236450,409.871948 329.056488,431.549347 
	C334.673157,463.421875 350.088165,488.404846 380.154327,502.731110 
	C398.862671,511.645477 418.156860,514.026855 437.626678,505.683472 
	C461.179321,495.590393 477.715149,476.922455 493.578522,457.756805 
	C495.715118,455.175385 496.733582,450.467896 496.185486,447.082336 
	C494.278046,435.300049 482.266327,431.309723 473.105713,439.691559 
	C466.527496,445.710541 460.940674,452.895691 455.396027,459.941833 
	C447.499969,469.976074 437.338654,476.021332 425.003021,478.584320 
	C410.767395,481.542084 399.723175,476.833893 392.185669,464.456299 
	C384.245117,451.416809 381.923889,436.766815 381.127960,421.904724 
	C379.549438,392.430206 389.808502,366.379181 405.394684,342.088745 
	C410.932373,333.458496 417.875885,326.058075 427.129547,321.185303 
	C438.883820,314.995667 454.502716,316.601227 460.380676,331.772858 
	C463.438477,339.665283 465.787445,347.834991 468.914764,355.697205 
	C472.694672,365.200073 479.371643,368.258575 488.816162,364.896790 
	C490.799316,364.190857 493.050507,362.104034 493.714478,360.154877 
	C500.630524,339.853058 507.240570,319.447052 513.953247,299.075806 
	C515.206848,295.271393 515.937256,291.461273 512.475525,288.458466 
	C508.690704,285.175354 504.279236,285.174622 499.791595,286.859436 
	C495.524689,288.461395 493.913055,292.125031 493.162933,296.170166 
	C492.415558,300.200623 491.135559,303.607330 486.606689,304.560303 
	C481.985504,305.532715 477.700623,305.589996 474.590302,301.026642 
	C473.598724,299.571838 471.960785,298.492493 470.471710,297.451385 
	C442.431091,277.846375 410.961914,280.181427 381.789398,297.861847 
	C380.278687,298.777435 378.778442,299.710175 376.462372,301.133209 
	C376.894287,298.395172 377.095215,296.608551 377.464386,294.857361 
	C384.394836,261.982422 391.370087,229.116928 398.274353,196.236511 
	C400.053162,187.765198 405.246246,182.883224 413.567993,181.187744 
	C416.336304,180.623734 419.233887,180.621124 421.952972,179.907135 
	C425.284760,179.032272 428.835968,178.222809 431.677612,176.417496 
	C437.033508,173.014771 436.798615,166.453690 431.211609,163.473679 
	C428.407288,161.977951 424.860779,161.076065 421.701599,161.201935 
	C414.066162,161.506210 406.461121,162.572235 397.944427,163.496719 
z"/>
<path fill="#D3CBBD" opacity="1.000000" stroke="none" 
	d="
M398.394104,163.413940 
	C406.461121,162.572235 414.066162,161.506210 421.701599,161.201935 
	C424.860779,161.076065 428.407288,161.977951 431.211609,163.473679 
	C436.798615,166.453690 437.033508,173.014771 431.677612,176.417496 
	C428.835968,178.222809 425.284760,179.032272 421.952972,179.907135 
	C419.233887,180.621124 416.336304,180.623734 413.567993,181.187744 
	C405.246246,182.883224 400.053162,187.765198 398.274353,196.236511 
	C391.370087,229.116928 384.394836,261.982422 377.464386,294.857361 
	C377.095215,296.608551 376.894287,298.395172 376.462372,301.133209 
	C378.778442,299.710175 380.278687,298.777435 381.789398,297.861847 
	C410.961914,280.181427 442.431091,277.846375 470.471710,297.451385 
	C471.960785,298.492493 473.598724,299.571838 474.590302,301.026642 
	C477.700623,305.589996 481.985504,305.532715 486.606689,304.560303 
	C491.135559,303.607330 492.415558,300.200623 493.162933,296.170166 
	C493.913055,292.125031 495.524689,288.461395 499.791595,286.859436 
	C504.279236,285.174622 508.690704,285.175354 512.475525,288.458466 
	C515.937256,291.461273 515.206848,295.271393 513.953247,299.075806 
	C507.240570,319.447052 500.630524,339.853058 493.714478,360.154877 
	C493.050507,362.104034 490.799316,364.190857 488.816162,364.896790 
	C479.371643,368.258575 472.694672,365.200073 468.914764,355.697205 
	C465.787445,347.834991 463.438477,339.665283 460.380676,331.772858 
	C454.502716,316.601227 438.883820,314.995667 427.129547,321.185303 
	C417.875885,326.058075 410.932373,333.458496 405.394684,342.088745 
	C389.808502,366.379181 379.549438,392.430206 381.127960,421.904724 
	C381.923889,436.766815 384.245117,451.416809 392.185669,464.456299 
	C399.723175,476.833893 410.767395,481.542084 425.003021,478.584320 
	C437.338654,476.021332 447.499969,469.976074 455.396027,459.941833 
	C460.940674,452.895691 466.527496,445.710541 473.105713,439.691559 
	C482.266327,431.309723 494.278046,435.300049 496.185486,447.082336 
	C496.733582,450.467896 495.715118,455.175385 493.578522,457.756805 
	C477.715149,476.922455 461.179321,495.590393 437.626678,505.683472 
	C418.156860,514.026855 398.862671,511.645477 380.154327,502.731110 
	C350.088165,488.404846 334.673157,463.421875 329.056488,431.549347 
	C325.236450,409.871948 327.145020,388.432800 332.185028,367.140320 
	C332.589325,365.432251 332.180328,362.708160 331.038666,361.583344 
	C317.596893,348.339508 307.522888,332.705139 298.300507,316.427551 
	C288.213409,298.623779 278.416595,280.642792 267.821747,263.145599 
	C263.467255,255.954285 257.373901,249.812637 252.040375,243.218719 
	C249.363190,239.908890 247.237762,240.524170 245.282547,244.084030 
	C240.326630,253.107178 239.702209,263.135498 238.310425,273.003021 
	C236.058182,288.971222 233.549393,304.906464 231.563675,320.907135 
	C230.916046,326.125580 231.248489,331.531189 231.695511,336.803467 
	C232.256119,343.415497 235.474777,348.622925 240.897598,352.700531 
	C244.790283,355.627594 249.725693,358.700226 247.523315,364.811829 
	C245.233688,371.165527 239.235413,370.521179 234.293335,369.970428 
	C221.228119,368.514496 208.412857,369.021057 195.737900,372.616089 
	C194.487549,372.970734 193.083481,372.924103 191.761002,372.858185 
	C187.257492,372.633667 182.947571,371.712799 181.123932,366.937744 
	C179.348373,362.288635 180.668762,357.921478 183.996979,354.500183 
	C186.644104,351.779053 189.885681,349.631409 192.891983,347.265564 
	C197.107819,343.947906 199.705032,339.972626 200.386078,334.347198 
	C204.807266,297.828369 209.489578,261.341125 214.090210,224.844025 
	C214.215103,223.853195 214.299713,222.846741 214.543610,221.883118 
	C216.751251,213.160812 214.337769,206.270844 206.883820,200.973709 
	C204.072571,198.975906 201.515976,196.402008 199.431976,193.645645 
	C195.559143,188.523346 197.069382,182.800125 203.222900,180.977417 
	C208.888184,179.299301 214.923447,178.565262 220.848343,178.127762 
	C236.428604,176.977295 252.037308,176.211273 267.635284,175.302414 
	C269.297913,175.205536 270.966064,175.204163 272.628967,175.111130 
	C279.710663,174.714966 284.501740,177.227005 287.169312,184.397888 
	C292.848358,199.663895 298.117188,215.215408 305.413422,229.714264 
	C315.188965,249.139984 326.642975,267.727478 337.589355,286.550995 
	C339.337524,289.557159 342.198975,291.915924 344.993439,295.081085 
	C351.919067,281.140717 356.307983,267.502167 358.550415,253.412125 
	C361.423859,235.357208 363.080078,217.108582 365.261139,198.943466 
	C366.133575,191.676804 363.078735,186.414337 357.050720,182.577332 
	C352.700409,179.808197 348.393219,176.966156 344.146667,174.040695 
	C340.893768,171.799774 338.282837,168.430649 340.377136,164.819244 
	C341.732727,162.481705 345.633392,160.176666 348.289856,160.289993 
	C359.061737,160.749557 369.781403,162.305756 380.544830,163.142181 
	C386.319000,163.590912 392.142944,163.399353 398.394104,163.413940 
M376.476776,301.516144 
	C376.476776,301.516144 376.610565,301.252319 376.610565,301.252319 
	C376.610565,301.252319 376.386597,301.297516 376.476776,301.516144 
z"/>
<path fill="#312823" opacity="1.000000" stroke="none" 
	d="
M376.431702,301.406830 
	C376.386597,301.297516 376.610565,301.252319 376.610565,301.252319 
	C376.610565,301.252319 376.476776,301.516144 376.431702,301.406830 
z"/>
</svg>