<svg xmlns="http://www.w3.org/2000/svg" xmlns:xlink="http://www.w3.org/1999/xlink" version="1.1" id="Layer_1" x="0px" y="0px" width="2500" viewBox="0 0 2500 620" enable-background="new 0 0 2500 620" xml:space="preserve" height="620"><title xmlns="http://www.w3.org/1999/xhtml">North Creek Logo</title>
<path fill="currentColor" opacity="1.000000" stroke="none" d=" M1384.017578,87.127472   C1381.943726,90.154678 1381.012695,92.919868 1383.981689,95.433693   C1386.727173,97.758133 1389.104370,96.131638 1391.657471,94.613091   C1398.637695,90.461090 1405.501465,85.976601 1412.879517,82.667053   C1420.962769,79.041092 1429.459106,79.778862 1437.617432,83.358292   C1444.000854,86.159065 1446.460205,89.778992 1443.764038,96.308609   C1440.450684,104.333099 1436.274536,112.254433 1431.093750,119.191399   C1424.441040,128.099091 1416.452881,136.014755 1408.973877,144.298050   C1404.028931,149.774750 1404.642700,152.300583 1411.224854,155.379074   C1425.356323,161.988235 1439.642334,168.341965 1453.357544,175.741226   C1463.595581,181.264587 1465.149048,187.506424 1461.232544,198.379318   C1458.418579,206.191345 1453.595093,209.837967 1444.452393,209.724564   C1438.336548,209.648697 1432.196167,208.620956 1426.142456,207.579666   C1422.560425,206.963516 1419.557617,207.136688 1418.522095,210.986633   C1417.435181,215.027283 1420.431885,216.496246 1423.666016,217.549301   C1431.881714,220.224380 1440.040283,223.083405 1448.303101,225.601654   C1452.315552,226.824539 1453.441406,229.308731 1452.965332,233.134140   C1451.959229,241.220184 1445.980835,247.436996 1437.248291,248.970673   C1420.418213,251.926498 1404.225586,248.234894 1387.926392,244.495880   C1355.865967,237.141266 1335.440674,215.926300 1319.856567,188.673355   C1317.713135,184.925110 1315.690308,181.094879 1313.848877,177.190704   C1312.136597,173.559906 1310.480103,170.392319 1305.502075,170.984695   C1299.879761,171.653732 1294.161255,172.233566 1292.213013,178.622910   C1290.966675,182.710617 1290.553467,187.097885 1290.149780,191.386871   C1289.468018,198.631058 1287.700928,205.451752 1283.632324,211.578430   C1273.415649,226.962738 1263.283325,242.403656 1252.979004,257.728912   C1249.260864,263.258636 1244.123047,267.153625 1237.709961,269.236816   C1233.426392,270.628235 1229.839966,269.762115 1226.083984,267.038879   C1209.805176,255.236008 1208.887817,237.039566 1216.023560,220.461441   C1220.265503,210.606339 1226.237305,201.490738 1231.521973,192.093582   C1232.658447,190.072647 1234.637329,188.434937 1235.402954,186.321716   C1236.152954,184.251511 1236.812744,180.641373 1235.784058,179.786560   C1234.232544,178.497253 1230.395996,177.905655 1228.902588,178.960297   C1223.002441,183.127014 1217.395264,187.798325 1212.169556,192.794891   C1209.339111,195.501175 1207.433960,199.199081 1205.218994,202.521408   C1192.499390,221.599533 1179.879517,240.744614 1167.062012,259.756439   C1164.190063,264.016296 1160.892578,268.053528 1157.345703,271.767792   C1155.494263,273.706390 1152.843140,275.316010 1150.262085,276.050507   C1136.511963,279.963226 1126.852661,272.904022 1126.062744,258.591583   C1125.257690,244.006363 1128.912354,230.150925 1133.728516,216.643494   C1137.460693,206.176636 1142.012573,195.994446 1146.404053,185.773270   C1148.996826,179.738113 1147.389160,177.032074 1140.787842,176.940536   C1119.133545,176.640259 1097.472900,176.528992 1075.829468,175.863846   C1068.896484,175.650787 1061.917969,174.349579 1055.122192,172.824646   C1044.187988,170.371094 1039.772339,161.534637 1044.232300,151.185257   C1048.081909,142.252045 1054.178833,134.858353 1062.787231,130.247192   C1081.872803,120.024017 1102.355835,113.950233 1123.789429,111.049110   C1126.759033,110.647171 1129.829468,110.684891 1132.694214,109.921883   C1134.567993,109.422844 1137.230469,108.120781 1137.596680,106.683372   C1138.050049,104.903679 1137.122070,101.798462 1135.689087,100.689285   C1130.855347,96.947777 1125.818359,93.241280 1120.334351,90.618706   C1111.217773,86.258926 1106.818726,79.068970 1107.367920,69.535591   C1107.972412,59.041733 1113.014282,50.608723 1123.505005,47.020870   C1136.929443,42.429676 1150.119019,45.024525 1163.068359,49.534473   C1182.838623,56.420002 1193.745605,70.783195 1197.921387,90.860817   C1199.105957,96.556709 1200.696045,102.170219 1201.808228,107.878410   C1202.346924,110.643127 1203.563965,111.857849 1206.384033,112.053650   C1213.420166,112.542198 1220.440796,113.254166 1227.467773,113.876465   C1227.856567,113.207062 1228.245483,112.537659 1228.634277,111.868256   C1226.412231,109.260513 1224.495239,106.292267 1221.914673,104.108231   C1211.412720,95.220367 1205.392944,83.779556 1202.720337,70.562897   C1201.848511,66.252502 1201.747437,61.546215 1202.441650,57.204578   C1204.460205,44.583458 1213.020142,41.182304 1227.487061,42.756870   C1231.328247,43.174942 1235.364502,45.611816 1238.480957,48.143673   C1247.008423,55.071354 1254.842651,62.856812 1263.419678,69.717262   C1273.242188,77.574081 1277.334106,88.029037 1278.981445,99.923897   C1279.712280,105.200569 1280.529785,110.465210 1281.267334,115.740997   C1281.876953,120.101227 1284.158691,122.169456 1288.726318,121.817986   C1294.206421,121.396294 1299.760864,121.620468 1305.176147,120.830948   C1307.363892,120.511978 1310.126587,118.700821 1311.131714,116.784256   C1313.581909,112.111694 1315.722046,107.120621 1316.989258,102.010384   C1322.714600,78.920349 1337.342896,62.368347 1355.656738,48.484200   C1365.410156,41.090023 1375.732788,34.712101 1388.390625,33.753498   C1391.163208,33.543526 1394.080688,33.546230 1396.764526,34.169849   C1407.159180,36.585159 1410.042725,41.721981 1405.094360,51.078175   C1398.650635,63.261433 1391.199219,74.911781 1384.017578,87.127472  z"/>
<path fill="currentColor" opacity="1.000000" stroke="none" d=" M1876.989258,435.129639   C1876.211548,439.788055 1875.068481,444.022980 1874.900635,448.296234   C1874.640015,454.925049 1878.923828,458.553375 1885.236938,456.420410   C1890.105103,454.775696 1894.735596,451.816376 1898.814819,448.606689   C1903.626465,444.820740 1907.522461,439.890594 1912.203369,435.912964   C1916.368042,432.374084 1921.440430,430.744537 1927.029785,431.727631   C1933.308716,432.831970 1935.842163,436.304626 1934.737915,442.666534   C1934.172974,445.920929 1933.545532,449.324463 1932.096802,452.238190   C1925.282104,465.943237 1923.357300,480.691925 1921.926514,495.643921   C1921.555176,499.525330 1920.164673,503.419189 1918.640747,507.055267   C1916.149536,512.999756 1911.035767,515.111450 1904.915283,514.913025   C1898.831299,514.715820 1895.173828,511.251068 1893.306763,505.649475   C1891.574951,500.453857 1889.979736,495.206696 1888.057373,490.082428   C1886.297485,485.391663 1883.010864,482.141022 1877.725708,482.051178   C1872.345215,481.959717 1867.379883,484.051178 1865.561401,489.169556   C1862.520752,497.727844 1860.474121,506.642273 1858.080933,515.426392   C1856.862305,519.899536 1856.032715,524.490540 1854.608643,528.892822   C1852.779663,534.547485 1853.193726,537.993286 1858.671143,539.915344   C1866.886719,542.798340 1875.498169,545.018982 1884.121582,546.173157   C1899.754395,548.265442 1915.355347,546.667969 1930.834961,543.747864   C1943.454468,541.367249 1951.883911,533.881287 1957.834839,522.875183   C1962.019531,515.135986 1966.242065,507.371338 1971.117188,500.064758   C1975.754395,493.114960 1982.567505,489.096191 1991.173828,488.566071   C2000.465088,487.993774 2004.853027,493.057556 2001.177856,501.500305   C1992.233398,522.048950 1982.763550,542.372070 1973.303711,562.692078   C1968.962158,572.017761 1961.623291,576.123474 1951.018311,576.434509   C1927.226929,577.132202 1903.839355,574.436462 1880.441895,570.653198   C1866.162231,568.344299 1851.753296,566.568298 1837.332520,565.467285   C1818.593262,564.036499 1800.710083,568.898193 1783.036133,574.555603   C1770.968262,578.418518 1758.738647,582.286560 1745.917969,581.184265   C1713.723511,578.416016 1689.386963,563.061707 1673.961670,534.398315   C1668.056641,523.425659 1662.807129,512.101013 1656.936401,501.109009   C1648.664917,485.621979 1635.410522,478.583344 1617.997925,479.039764   C1609.632812,479.259033 1607.075195,481.088013 1605.052979,489.233612   C1603.571899,495.200012 1602.749268,501.328735 1601.301880,507.304901   C1599.237183,515.829895 1597.054810,524.336121 1594.572510,532.747070   C1592.599609,539.431946 1593.380859,541.322449 1600.124878,543.261536   C1603.157837,544.133423 1606.318970,544.674988 1609.215210,545.868164   C1611.435303,546.782776 1613.796753,548.101074 1615.283203,549.907959   C1619.617920,555.177063 1617.246948,561.682434 1610.517822,561.812256   C1599.253540,562.029480 1587.836304,562.044312 1576.721680,560.466431   C1560.582275,558.175110 1544.685059,557.036194 1528.582886,560.418335   C1524.261963,561.325989 1519.569458,561.246277 1515.171143,560.672607   C1512.992798,560.388550 1509.865845,558.257324 1509.409668,556.408569   C1508.936768,554.492249 1510.559082,550.881104 1512.344360,549.809326   C1517.420532,546.761963 1523.030273,544.594482 1528.462402,542.152649   C1532.082642,540.525330 1535.913086,539.301941 1539.371826,537.394592   C1544.220337,534.720825 1546.624268,530.297180 1547.113525,524.757812   C1550.995361,480.811829 1560.563232,438.099731 1574.258057,396.189789   C1576.882812,388.157593 1576.884644,379.252686 1577.943237,370.731354   C1578.409668,366.976990 1576.209595,365.490479 1572.686523,365.058258   C1568.566650,364.552734 1564.436035,363.896973 1560.420654,362.872589   C1558.237671,362.315704 1555.536133,361.365387 1554.401123,359.689850   C1552.662476,357.122986 1550.949829,353.611298 1551.361328,350.814850   C1551.677734,348.665436 1555.101318,345.691467 1557.459839,345.363708   C1564.657959,344.363464 1572.224243,343.185669 1579.261963,344.368683   C1604.196655,348.560028 1629.111450,346.403076 1654.067505,345.704132   C1671.078857,345.227722 1687.941650,345.922821 1704.332886,351.694122   C1732.952515,361.771057 1747.738647,397.350525 1728.959351,427.209930   C1719.814697,441.750061 1707.294189,452.805939 1693.264771,462.355865   C1688.617554,465.519287 1688.204468,467.107574 1691.641724,471.495880   C1693.678833,474.096283 1695.953857,476.686035 1698.615234,478.591187   C1709.979614,486.725830 1717.062744,498.045929 1722.961670,510.318085   C1726.993652,518.706116 1730.819214,527.199890 1735.075562,535.472168   C1745.111694,554.977844 1767.351196,561.140869 1786.250854,549.640564   C1793.716309,545.097961 1798.757568,537.663574 1800.269287,529.747742   C1804.470459,507.749359 1811.867554,486.786804 1818.385376,465.500824   C1824.312256,446.145142 1829.465332,426.540253 1834.437744,406.913025   C1835.712769,401.880035 1835.145020,396.349091 1835.192627,391.044861   C1835.242432,385.503754 1831.950317,382.313904 1827.178589,380.117950   C1823.574707,378.459412 1819.913452,376.752655 1816.686279,374.485748   C1810.697510,370.279083 1809.079834,365.460205 1811.154907,359.950775   C1813.344482,354.137177 1819.970825,349.686829 1826.145752,350.439301   C1830.412109,350.959106 1834.835571,351.631805 1838.759644,353.266632   C1856.159180,360.515594 1874.396973,361.419128 1892.760254,360.430756   C1911.040894,359.446808 1929.310059,357.900116 1947.508667,355.909668   C1955.039917,355.085907 1962.367065,352.434143 1969.800537,350.670563   C1978.138672,348.692474 1985.025146,351.953735 1990.515625,357.672119   C1992.459351,359.696503 1993.521973,363.915649 1992.969116,366.737427   C1991.250854,375.506897 1988.961182,384.218262 1986.145142,392.703888   C1983.219482,401.519562 1979.651367,410.147003 1975.902466,418.653320   C1974.187500,422.544586 1971.748169,426.279175 1968.959351,429.497406   C1964.507202,434.635071 1958.335205,435.507477 1952.692627,432.548981   C1945.510376,428.783203 1942.913696,424.028351 1944.426270,416.775543   C1945.544434,411.414124 1947.222290,406.164490 1948.229370,400.786163   C1949.647095,393.216888 1947.730591,389.798340 1940.415405,387.547485   C1927.931274,383.706207 1915.192627,383.389954 1902.390137,385.904816   C1897.129150,386.938263 1893.772217,390.702393 1891.932739,395.154755   C1886.997803,407.100433 1882.650146,419.288971 1878.087280,431.387909   C1877.677612,432.474213 1877.399902,433.610291 1876.989258,435.129639  M1672.321655,377.297913   C1665.383789,370.075348 1650.202393,366.816223 1641.351318,371.394287   C1638.625977,372.803925 1636.106323,376.129395 1635.116211,379.115936   C1630.529297,392.952148 1626.406860,406.946594 1622.331665,420.946564   C1619.641602,430.187500 1617.362427,439.536469 1620.581909,449.392212   C1628.265259,449.392212 1635.750488,449.438263 1643.234131,449.347473   C1644.499268,449.332092 1646.041138,449.084412 1646.976196,448.341339   C1660.629883,437.490601 1675.624512,427.547913 1675.677124,407.178223   C1675.702637,397.306396 1678.239136,387.203064 1672.321655,377.297913  z"/>
<path fill="currentColor" opacity="1.000000" stroke="none" d=" M812.951782,337.865356   C820.051208,338.624725 826.648376,339.844025 833.269958,339.995819   C841.166565,340.176788 849.264648,340.370911 856.948425,338.877197   C867.230713,336.878265 877.300781,335.650635 887.604431,337.876434   C899.594727,340.466553 911.374573,339.058685 923.233093,336.628723   C928.883972,335.470825 934.835632,334.964447 940.586670,335.292694   C950.555237,335.861664 955.731567,342.404968 952.609070,351.544556   C949.085266,361.858795 950.859619,371.880066 951.276489,382.149445   C951.583862,389.719269 951.091309,397.460999 949.776489,404.918335   C948.435364,412.525116 942.586121,414.449829 936.368835,409.656158   C933.164795,407.185791 930.354309,403.858307 928.250183,400.382782   C924.298096,393.855103 921.190735,386.821472 917.366760,380.209534   C910.342407,368.063721 891.582153,360.913239 878.147095,364.841888   C873.438599,366.218689 870.425354,368.986023 870.358215,373.944366   C870.041870,397.322327 863.194092,419.549103 858.360840,442.108582   C852.283630,470.474701 846.712646,498.860626 847.190186,528.058228   C847.217407,529.724182 847.379333,531.401001 847.247742,533.054321   C846.618713,540.953430 849.881226,545.618530 857.683655,548.123413   C866.219482,550.863708 868.884155,555.327881 869.004456,563.121277   C869.080994,568.079895 866.709229,571.793335 862.062561,571.881897   C853.844482,572.038513 845.335938,572.088501 837.422363,570.199707   C815.202087,564.896362 793.144226,565.745178 771.051086,570.064758   C765.727539,571.105591 760.407104,572.943848 755.522827,575.316223   C733.331665,586.094421 711.145569,583.588562 689.184937,575.246765   C666.144653,566.494812 649.792664,550.517334 640.056580,527.693481   C634.782166,515.328796 629.568481,502.864197 620.684998,492.422089   C614.138733,484.727234 605.995667,480.697235 595.845886,480.850098   C594.679871,480.867645 593.513123,480.836426 592.346802,480.841644   C577.992310,480.905640 577.723816,481.088562 575.038330,495.329651   C573.867065,501.540955 573.216980,507.865845 571.759888,514.003784   C570.234253,520.430725 568.180908,526.747986 566.071960,533.016846   C563.672119,540.150208 564.863708,542.688721 572.083557,544.717468   C575.593079,545.703613 579.150269,546.565857 582.576843,547.789246   C586.804321,549.298584 589.134949,552.587646 588.674500,557.009155   C588.244873,561.133850 584.744019,563.014282 581.146179,563.056396   C571.205811,563.172791 561.219604,563.224854 551.324341,562.414062   C537.426453,561.275452 523.689819,557.778564 509.595917,560.020996   C504.174103,560.883728 498.759705,561.831055 493.309723,562.461670   C490.870728,562.743958 488.090637,562.968750 485.943909,562.072876   C483.801971,561.178955 481.434631,559.132568 480.724915,557.058105   C480.198761,555.520203 481.609497,552.274597 483.131287,551.280334   C487.392059,548.496704 491.975677,545.980225 496.756042,544.258179   C517.579651,536.756897 517.367004,535.829285 519.392639,513.579041   C521.045410,495.424713 525.179626,477.481873 528.493042,459.496765   C532.748962,436.395996 540.067139,414.137360 547.143677,391.789093   C549.189148,385.329193 548.626892,378.045959 549.282227,371.142273   C549.549744,368.324554 547.813599,367.470032 545.484619,367.001709   C541.084961,366.117035 536.648254,365.336792 532.337769,364.120605   C530.011963,363.464386 527.651733,362.325836 525.771729,360.823425   C522.186584,357.958282 521.906677,353.511200 523.288391,349.860168   C524.003357,347.970917 527.708191,346.227509 530.124817,346.139679   C540.242737,345.772186 550.646851,344.617889 560.461121,346.409180   C579.296326,349.847046 597.979431,348.351379 616.749939,347.508453   C633.420654,346.759796 650.000916,346.633606 666.509094,349.926392   C707.679260,358.138458 719.069702,402.180695 698.527832,431.047119   C689.021545,444.405701 676.815063,454.878174 664.169067,464.978943   C662.879272,466.009094 661.599915,467.052338 659.624695,468.647583   C662.677185,472.131256 665.098267,476.062836 668.539734,478.622498   C684.687256,490.632690 693.426392,507.801361 701.871338,525.227051   C704.116699,529.860229 705.937378,534.705444 708.296997,539.275818   C715.334412,552.906738 725.510437,558.307495 740.419434,554.517456   C755.035034,550.801941 769.364807,545.833679 783.597168,540.786682   C792.537659,537.616211 796.129333,529.329529 797.752991,520.943604   C800.085938,508.894348 802.251038,496.617828 802.489807,484.399292   C802.958557,460.408661 807.171082,437.108490 812.338806,413.836823   C815.519775,399.511963 817.343872,385.010864 814.575562,370.295685   C795.424927,368.050842 776.939148,369.182190 760.608276,380.641113   C757.183960,383.043884 754.556030,386.738129 751.979126,390.152740   C748.676636,394.528809 746.022217,399.399323 742.657776,403.721527   C740.341736,406.696930 737.543518,409.443573 734.503784,411.667908   C731.460083,413.895172 727.742798,414.602936 724.234863,412.316895   C720.778748,410.064575 720.465759,406.515320 721.252869,402.955658   C722.038818,399.401550 722.870178,395.732086 724.473999,392.507294   C729.668823,382.062195 732.223450,371.120148 732.993225,359.474884   C733.764893,347.802277 738.748352,342.052765 750.175903,341.113220   C770.886719,339.410370 791.693604,338.875244 812.951782,337.865356  M646.960327,387.880310   C646.054932,378.293640 640.169189,373.439819 631.236389,371.959137   C626.690247,371.205566 621.984314,370.822815 617.393555,371.070068   C610.361389,371.448822 607.953613,374.030792 606.653809,381.003326   C606.289246,382.958832 605.937439,384.938507 605.318970,386.821350   C601.128418,399.576965 596.426147,412.186035 592.813477,425.100983   C590.964722,431.710327 590.795654,438.838898 590.345398,445.763885   C590.183411,448.253540 590.864380,450.830841 594.768127,451.059967   C615.879395,452.299072 617.561157,451.786194 632.724670,437.059265   C634.871277,434.974426 637.299011,433.033539 638.908508,430.575439   C641.310913,426.906586 644.337463,423.008881 644.907227,418.904388   C646.289856,408.944885 646.408508,398.809906 646.960327,387.880310  z"/>
<path fill="currentColor" opacity="1.000000" stroke="none" d=" M279.533325,396.559509   C272.114990,431.122528 264.613434,465.238129 257.650757,499.463379   C255.135010,511.829681 253.984619,524.470093 252.070297,536.963745   C250.905853,544.563477 247.870605,551.220215 241.908554,556.428528   C233.064819,564.154236 223.284119,565.480103 214.286438,557.984985   C206.173706,551.226990 198.102951,543.696167 192.359055,534.963501   C179.403519,515.266785 167.645874,494.761383 155.876343,474.311310   C144.749481,454.977905 134.440720,435.158203 118.810760,418.852386   C113.354141,413.159790 111.611115,413.028137 108.921936,420.411835   C105.937096,428.607391 103.738861,437.225800 102.369232,445.846161   C99.030006,466.863037 96.120239,487.957794 93.586205,509.087006   C92.845741,515.261169 93.482475,521.721436 94.341545,527.932556   C95.210144,534.212463 98.660294,539.306335 103.905426,543.165527   C106.430519,545.023376 108.895424,547.160278 110.799240,549.625305   C115.061584,555.144043 112.801826,561.530884 105.975800,563.028137   C102.292648,563.835938 98.276291,564.327209 94.600304,563.750305   C81.021591,561.619446 67.776436,562.761292 54.574905,566.256409   C51.745777,567.005493 48.593979,567.078613 45.658962,566.784058   C36.502445,565.865356 32.050549,558.561218 36.201168,550.328430   C38.112392,546.537537 41.643822,543.178772 45.182785,540.671753   C52.966915,535.157471 57.322086,528.616882 58.468777,518.606750   C63.470867,474.940613 69.276711,431.366089 74.883888,387.770294   C75.646172,381.843597 74.206429,376.929718 69.756287,372.911438   C66.171501,369.674561 62.422359,366.589264 59.095219,363.103485   C51.001492,354.623871 53.178600,346.811310 64.646027,344.355042   C71.270775,342.936005 78.210609,342.104614 84.962532,342.338684   C101.186920,342.901093 117.196449,341.494843 133.246399,339.388550   C150.962402,337.063629 153.732361,338.646881 160.064560,355.322479   C171.643082,385.813965 183.631638,416.085846 200.951630,443.905060   C206.137955,452.235260 211.434540,460.503754 216.939514,468.625000   C218.929184,471.560272 221.676651,473.981842 225.239182,477.921600   C229.123993,467.030212 233.028564,457.725647 235.768021,448.089844   C243.454025,421.055115 246.558167,393.284821 248.148041,365.299072   C248.569412,357.881958 245.684906,352.406067 239.708084,348.370972   C235.572449,345.578888 231.310608,342.973541 227.179016,340.175690   C225.119080,338.780731 223.015823,337.344238 221.295013,335.573853   C216.159027,330.289795 218.110855,322.987793 225.359879,322.255341   C232.890793,321.494446 240.618713,321.968567 248.200333,322.611664   C256.972595,323.355804 265.665161,325.680328 274.418182,325.832611   C283.514038,325.990875 292.634735,324.297546 301.756592,323.563629   C306.562805,323.176910 311.410126,322.790741 316.209076,323.022308   C318.919586,323.153137 321.844360,324.068909 324.193970,325.447174   C330.532043,329.164917 330.961517,336.835297 324.558197,340.362213   C319.928284,342.912384 314.330078,344.065704 309.015411,344.929749   C300.313477,346.344452 292.225037,348.446838 288.147583,357.254700   C286.850342,360.056824 286.310669,363.246460 285.673553,366.310638   C283.607849,376.246002 281.657745,386.205353 279.533325,396.559509  z"/>
<path fill="currentColor" opacity="1.000000" stroke="none" d=" M1029.903931,428.012878   C1028.990234,434.713379 1028.166260,441.012573 1027.256714,447.965179   C1030.411377,447.965179 1032.033325,447.965179 1033.655396,447.965179   C1056.820801,447.965179 1079.986328,447.967529 1103.151733,447.963898   C1110.656494,447.962708 1113.619629,446.260834 1114.927979,438.664368   C1116.728516,428.209229 1117.921509,417.591736 1118.469482,406.996948   C1118.905151,398.575195 1119.976929,390.589691 1123.593994,382.844177   C1126.626465,376.350433 1124.719849,374.709137 1117.590942,373.820343   C1112.191162,373.147064 1106.631714,371.369415 1101.853149,368.775604   C1097.180542,366.239410 1097.392822,361.862732 1101.115967,357.889496   C1105.918091,352.764740 1112.326294,351.948486 1118.628418,352.287781   C1129.421631,352.868896 1140.205200,354.001923 1150.928955,355.394501   C1161.373535,356.750824 1171.406738,356.329376 1181.296021,352.202026   C1186.472900,350.041443 1192.012207,348.564758 1197.521973,347.430939   C1204.924561,345.907562 1209.640625,348.234985 1213.125244,354.236725   C1216.003784,359.194580 1215.361694,362.821167 1210.294067,365.407867   C1205.892212,367.654633 1201.181030,369.801697 1196.370972,370.639374   C1185.662109,372.504303 1180.049927,379.078094 1177.945923,389.011322   C1174.674927,404.454010 1172.088745,420.043549 1168.720459,435.463409   C1164.606567,454.296661 1159.581299,472.936401 1155.716309,491.816681   C1152.890869,505.618958 1150.944702,519.632446 1149.299072,533.633179   C1148.337036,541.818176 1152.660034,547.534241 1160.340820,550.703857   C1163.395264,551.964355 1166.979370,552.992798 1169.055542,555.277832   C1171.138916,557.570740 1172.845215,561.471436 1172.429810,564.335876   C1172.140991,566.327271 1168.061157,569.030701 1165.543213,569.179077   C1159.979492,569.507080 1154.077881,569.292847 1148.770630,567.739746   C1136.474731,564.141541 1124.386597,565.818176 1112.150513,567.387024   C1101.423706,568.762329 1090.662354,569.902710 1079.891846,570.876892   C1077.139404,571.125732 1074.182251,570.739746 1071.515625,569.967346   C1065.868652,568.331909 1063.895264,563.329773 1068.008301,559.287781   C1073.269897,554.116943 1079.804810,550.267334 1085.561890,545.567444   C1090.533203,541.509033 1095.575806,537.412659 1099.863770,532.678101   C1103.978271,528.135254 1105.390503,522.319885 1105.274048,516.004089   C1105.025757,502.537323 1105.198120,489.062805 1105.198120,475.480164   C1088.272827,475.480164 1071.663452,475.273834 1055.063477,475.581879   C1048.437500,475.704865 1041.837402,477.007538 1035.217163,477.694855   C1024.539185,478.803345 1018.531799,485.205597 1015.862915,495.069336   C1014.346497,500.673615 1012.901794,506.381897 1012.310974,512.134338   C1011.093018,523.992554 1008.347900,535.302612 1003.488953,546.242859   C999.411743,555.422729 1000.910278,558.305664 1010.092041,562.546875   C1011.901428,563.382690 1013.765137,564.119324 1015.510193,565.072937   C1021.631165,568.417725 1022.875000,572.205139 1019.501160,578.152100   C1018.747070,579.481262 1016.850952,581.038147 1015.506104,581.014832   C1006.569702,580.860229 997.571594,580.849792 988.726746,579.735291   C978.629211,578.462769 968.836975,578.943237 959.024719,581.412170   C948.412476,584.082336 937.629639,584.965454 926.845093,582.863281   C924.444885,582.395508 920.718811,580.217407 920.586060,578.584167   C920.376221,576.003723 922.098755,572.612427 924.087341,570.679443   C926.360962,568.469421 929.662476,566.813354 932.790894,566.073364   C946.792114,562.761230 952.149475,552.763123 954.100098,539.803345   C956.204773,525.820007 957.468689,511.626251 960.764160,497.924713   C966.318237,474.832703 973.750854,452.192444 979.304626,429.100372   C983.062683,413.474976 985.490234,397.467224 987.471130,381.501251   C988.579102,372.571350 986.346802,370.819153 977.657104,367.982605   C973.401794,366.593536 968.973206,365.397644 965.131531,363.218048   C963.141602,362.089050 960.942749,358.792969 961.253540,356.865265   C961.557312,354.981171 964.880676,352.289612 966.968445,352.206329   C977.256836,351.796021 987.652954,351.368317 997.862854,352.405792   C1010.234192,353.662872 1021.973206,352.245422 1033.807495,348.777466   C1041.901978,346.405426 1050.319702,345.014069 1058.677124,343.735199   C1061.218872,343.346252 1064.612061,344.034515 1066.621338,345.548431   C1071.421387,349.164795 1070.938965,354.525543 1065.375488,357.760223   C1059.805298,360.998871 1053.782349,363.523651 1047.791626,365.951050   C1043.754272,367.586975 1042.053955,369.749695 1042.085571,374.418579   C1042.184937,389.045197 1038.899536,403.124664 1033.805298,416.801239   C1032.471802,420.381256 1031.260742,424.006927 1029.903931,428.012878  z"/>
<path fill="currentColor" opacity="1.000000" stroke="none" d=" M2439.283203,358.493164   C2444.777832,357.407135 2449.806641,356.071167 2454.916260,355.582550   C2458.813721,355.209869 2462.843018,355.689148 2466.759766,356.200623   C2470.324463,356.666107 2472.657715,359.391754 2472.609131,362.651855   C2472.572998,365.108093 2471.203125,368.670532 2469.292969,369.769653   C2462.586670,373.628235 2455.706787,378.157257 2448.322998,379.693481   C2420.517334,385.478577 2399.199707,401.596832 2379.053223,420.243286   C2369.423828,429.155396 2358.990479,437.195374 2348.992432,445.713684   C2346.348877,447.965973 2343.626709,450.269073 2341.553467,453.011963   C2338.886230,456.541107 2340.026123,459.282501 2344.296387,460.520691   C2346.682129,461.212555 2349.164062,461.683380 2351.635498,461.951538   C2366.109863,463.521729 2377.057373,470.976929 2384.397705,483.089630   C2389.969482,492.283691 2394.105469,502.339844 2399.044922,511.927551   C2403.525146,520.624023 2407.619873,529.607422 2412.987549,537.736206   C2419.691162,547.888733 2425.551270,547.922729 2434.450195,539.504150   C2437.578125,536.545227 2440.713135,533.369263 2444.401611,531.271667   C2453.769043,525.944458 2463.695801,531.916016 2463.268311,542.671509   C2462.729248,556.233398 2456.145752,566.804688 2445.191650,574.454712   C2417.136719,594.047546 2374.224854,583.146851 2358.479980,552.031006   C2353.033936,541.267822 2349.666016,529.470581 2344.929688,518.323792   C2342.019531,511.474854 2338.951660,504.535339 2334.824707,498.396057   C2327.782471,487.919556 2319.069092,488.207611 2312.491699,499.051727   C2304.749268,511.816589 2301.227051,525.952942 2301.141113,540.896606   C2301.118164,544.898254 2302.912109,547.729004 2306.629883,549.592712   C2309.876221,551.220093 2313.025391,553.166626 2315.894043,555.389893   C2319.341797,558.062134 2319.631348,561.322449 2316.814453,564.910889   C2313.340820,569.335693 2308.738770,571.665710 2303.345215,571.107239   C2296.437256,570.392029 2289.507812,569.224609 2282.793701,567.465271   C2274.778564,565.364990 2267.197510,565.438660 2259.328125,568.233093   C2251.363281,571.061401 2243.152588,573.253174 2234.947510,575.319763   C2231.959717,576.072266 2228.378418,576.513367 2225.616455,575.540100   C2222.860596,574.569092 2219.598389,572.028564 2218.783203,569.467712   C2218.075195,567.244934 2219.685547,563.002258 2221.672607,561.472473   C2225.665771,558.398132 2230.380615,555.706726 2235.215088,554.390808   C2246.650635,551.277893 2253.033447,544.258240 2255.092041,532.739441   C2259.977051,505.407593 2265.348145,478.157745 2269.856445,450.765076   C2273.044189,431.396210 2275.102783,411.842560 2277.745361,392.382202   C2278.674561,385.537140 2277.271729,382.225189 2271.282227,378.649841   C2268.574463,377.033417 2265.690674,375.712006 2262.980225,374.099731   C2258.761230,371.590118 2256.204346,368.044830 2257.476807,362.922394   C2258.723145,357.905060 2262.841553,355.941772 2267.356445,356.119965   C2275.137939,356.427063 2282.897461,357.456879 2290.647949,358.341980   C2302.447510,359.689362 2314.092285,360.350037 2325.677002,356.316406   C2331.091797,354.431030 2336.982422,353.707764 2342.724609,353.035950   C2346.685547,352.572601 2349.867188,354.449829 2351.059082,358.637115   C2352.207275,362.672089 2350.894043,365.884705 2347.442383,368.121643   C2345.359131,369.471710 2343.176270,370.756622 2340.878662,371.669525   C2334.741699,374.107788 2332.250732,378.820190 2331.228760,385.065247   C2329.651611,394.702850 2327.538818,404.252136 2325.695312,413.846985   C2324.912354,417.923492 2323.949707,421.995453 2323.588135,426.115082   C2323.183105,430.728699 2325.446045,432.232483 2329.779541,430.435272   C2331.905518,429.553619 2334.048340,428.414886 2335.777344,426.921844   C2349.193848,415.334900 2361.130127,402.409363 2370.966553,387.597443   C2374.274902,382.615723 2375.368164,377.626282 2372.019043,372.250092   C2371.759277,371.833069 2371.628906,371.334045 2371.447021,370.869751   C2367.438965,360.632751 2370.528809,355.240875 2381.655273,355.231781   C2392.266846,355.223114 2402.873779,356.754913 2413.494141,357.428040   C2421.937744,357.963226 2430.398926,358.224701 2439.283203,358.493164  z"/>
<path fill="currentColor" opacity="1.000000" stroke="none" d=" M2127.398438,444.481445   C2132.394287,439.797760 2136.832764,434.994324 2141.911377,431.006744   C2145.704590,428.028595 2150.072998,425.012299 2154.634521,423.959503   C2161.903320,422.281891 2167.002686,427.406616 2166.093750,434.862823   C2165.478760,439.909393 2164.308594,445.087189 2162.283447,449.724487   C2156.946533,461.945831 2154.006836,474.512451 2153.882324,487.883301   C2153.844727,491.900330 2152.479980,496.080017 2150.940918,499.867401   C2148.566650,505.710144 2143.447754,508.286835 2137.417480,508.424194   C2131.685791,508.554718 2127.620850,505.452850 2125.577148,500.113861   C2123.560547,494.845673 2121.870117,489.453400 2119.979492,484.135834   C2118.346436,479.542816 2115.897461,475.474304 2110.531494,475.023926   C2104.908203,474.551941 2099.957031,476.948944 2097.890137,482.122192   C2094.775391,489.918274 2092.531494,498.083435 2090.258057,506.187286   C2088.646729,511.931427 2087.706055,517.860229 2086.268066,523.657471   C2084.834717,529.435669 2085.489990,531.999023 2091.179688,533.695190   C2099.422119,536.152588 2107.869385,538.385071 2116.384766,539.366699   C2133.005615,541.282837 2149.631592,540.942871 2165.864258,535.955750   C2175.874756,532.880310 2183.468994,527.009705 2188.500000,517.665283   C2192.830811,509.620941 2197.352295,501.649384 2202.309570,493.981995   C2205.952148,488.348358 2210.648193,483.074707 2217.852295,482.585297   C2222.087158,482.297638 2226.536621,483.703491 2230.709961,484.949097   C2231.838867,485.286041 2233.080566,487.887299 2232.943604,489.322784   C2232.553711,493.413086 2232.214600,497.771820 2230.551514,501.432434   C2222.588623,518.960266 2214.412842,536.399902 2205.879395,553.656677   C2199.889160,565.770325 2189.893799,570.628845 2176.152344,570.416199   C2151.714600,570.037903 2127.739258,566.252625 2103.724854,562.549561   C2079.202881,558.768311 2054.786133,557.570251 2030.185791,562.311768   C2021.769531,563.933960 2012.975586,563.688293 2004.343994,564.056702   C2001.029175,564.198181 1997.570679,563.160278 1997.129395,559.358032   C1996.781372,556.358582 1996.706909,552.175903 1998.439941,550.318420   C2002.441772,546.029297 2007.095337,541.433411 2012.411865,539.457458   C2028.131592,533.614929 2034.818970,521.741638 2037.411743,506.377380   C2042.412964,476.741272 2053.541016,448.807983 2061.362305,419.958344   C2064.007568,410.200684 2065.482422,400.118652 2067.338135,390.156158   C2068.799561,382.311066 2065.948242,376.622894 2058.635498,373.034668   C2054.771484,371.138611 2051.101807,368.785675 2047.537354,366.355957   C2043.850830,363.842804 2040.578735,360.696808 2041.985229,355.662567   C2043.370605,350.703918 2046.207275,346.131958 2051.460693,345.139282   C2056.043213,344.273376 2060.963623,345.000427 2065.715088,345.315979   C2067.660889,345.445190 2069.629395,346.164154 2071.462646,346.918427   C2090.352783,354.690948 2110.151611,354.431885 2130.012939,353.623413   C2152.502197,352.707977 2174.817383,350.479431 2196.865479,345.657959   C2201.970947,344.541443 2207.493896,344.639618 2212.752197,345.067993   C2221.690674,345.796112 2227.189941,352.142639 2225.098145,360.817627   C2222.112305,373.201477 2217.864502,385.309021 2213.649902,397.357574   C2211.355469,403.916718 2208.639648,410.507355 2204.931152,416.330658   C2202.412109,420.286072 2198.236084,423.634735 2194.081787,425.981323   C2189.380859,428.636505 2184.257080,427.255585 2180.237305,423.573029   C2176.056641,419.743103 2173.865234,415.013428 2175.606201,409.236694   C2176.707275,405.583771 2178.187744,402.047089 2179.374512,398.417786   C2182.613770,388.510406 2179.917236,382.899353 2170.085938,380.125244   C2159.907227,377.253143 2149.520752,376.157379 2138.946533,377.855225   C2131.552490,379.042389 2125.226562,382.324493 2122.660889,389.440796   C2116.473145,406.603119 2110.892334,423.987823 2105.288330,441.354218   C2103.957764,445.476532 2106.330078,447.975708 2110.345215,448.998535   C2116.719482,450.622223 2122.135986,448.529480 2127.398438,444.481445  z"/>
<path fill="currentColor" opacity="1.000000" stroke="none" d=" M498.329468,479.298096   C484.160583,513.076172 463.627350,541.632996 431.486084,559.213318   C407.277802,572.454468 380.682800,576.072327 353.889069,566.083435   C336.643951,559.654175 324.807343,546.435730 314.984528,531.477051   C272.238953,466.381683 297.235962,379.398712 366.908173,343.845215   C413.273438,320.185181 474.075134,342.330475 496.093414,395.162628   C507.607788,422.790985 508.259491,450.710846 498.329468,479.298096  M368.498016,540.190857   C382.625397,545.673218 395.858582,543.821472 407.251801,533.992249   C413.350220,528.730957 418.971252,522.537842 423.461365,515.859985   C438.431610,493.595612 446.725098,468.570404 452.057159,442.469086   C455.534576,425.446625 456.629730,408.563232 450.229126,391.828186   C442.856689,372.552094 425.196228,362.763550 406.115082,368.100647   C395.462616,371.080231 387.267151,378.011169 380.491302,386.403320   C352.652313,420.882935 342.548401,460.593475 347.305695,504.167450   C348.886444,518.645935 353.629791,532.218933 368.498016,540.190857  z"/>
<path fill="currentColor" opacity="1.000000" stroke="none" d=" M1413.806641,555.586182   C1433.586304,557.322205 1449.359619,550.393860 1461.875854,535.706848   C1468.560791,527.862366 1475.087402,519.874329 1482.015259,512.250671   C1484.056152,510.004852 1487.044067,508.331268 1489.913818,507.188690   C1495.360962,505.019928 1500.207031,506.318390 1504.423584,510.623444   C1509.309570,515.611694 1511.327881,521.147766 1508.598511,527.809937   C1507.663818,530.091125 1506.469727,532.411377 1504.862671,534.248962   C1491.690186,549.310974 1478.073608,563.972595 1461.690674,575.647888   C1432.701660,596.307068 1402.585938,596.196594 1372.021118,579.490479   C1343.649048,563.982849 1327.951050,539.069702 1321.553101,508.134033   C1314.157593,472.375000 1316.836548,436.795471 1333.255859,404.331390   C1350.386963,370.459686 1376.533813,344.966339 1415.636230,336.656555   C1440.089600,331.459900 1462.112061,337.440063 1482.158203,351.805420   C1483.227783,352.571960 1484.310425,353.486664 1485.010010,354.574799   C1488.341064,359.756195 1493.178833,359.509796 1498.322754,358.571777   C1503.549805,357.618500 1504.955444,353.724884 1505.931519,349.269348   C1507.626587,341.530579 1510.807495,338.327881 1517.414185,337.346527   C1526.540527,335.990875 1532.458374,342.507416 1529.718872,351.273346   C1525.853271,363.642578 1521.661011,375.909729 1517.601440,388.218231   C1514.063843,398.944153 1510.304077,409.603607 1507.083252,420.423676   C1505.866089,424.512665 1503.600464,426.291504 1499.704102,427.323608   C1489.696289,429.974640 1483.231079,427.378815 1478.998291,417.873169   C1476.645020,412.588654 1475.130615,406.928772 1473.271240,401.426849   C1472.155029,398.123596 1471.194214,394.765533 1470.006592,391.488983   C1462.952271,372.027435 1446.629150,369.559235 1430.832520,377.618378   C1420.291992,382.995941 1412.605103,391.609344 1406.386719,401.378693   C1389.094604,428.545105 1377.551147,457.642700 1379.214722,490.537994   C1380.109741,508.240173 1382.882812,525.641113 1392.811035,540.997009   C1397.712769,548.578430 1404.275879,553.851074 1413.806641,555.586182  z"/>
</svg>